<?xml version="1.0" standalone="no"?>
<!DOCTYPE svg PUBLIC "-//W3C//DTD SVG 20010904//EN"
 "http://www.w3.org/TR/2001/REC-SVG-20010904/DTD/svg10.dtd">
<svg version="1.0" xmlns="http://www.w3.org/2000/svg"
 width="639.000000pt" height="639.000000pt" viewBox="0 0 639.000000 639.000000"
 preserveAspectRatio="xMidYMid meet">
<metadata>
Created by potrace 1.14, written by Peter Selinger 2001-2017
</metadata>
<g transform="translate(0.000000,639.000000) scale(0.100000,-0.100000)"
fill="#000000" stroke="none">
<path d="M1986 5522 c-3 -6 -2 -13 3 -16 5 -3 -2 -32 -14 -63 -13 -32 -29 -91
-36 -131 -12 -64 -17 -76 -41 -88 -16 -8 -28 -22 -28 -31 0 -15 1 -15 18 0 10
10 22 17 27 17 12 0 -1 -224 -15 -250 -16 -30 -55 -24 -55 10 0 19 5 25 23 24
12 0 22 5 22 13 0 10 -9 13 -27 11 -33 -4 -54 -48 -37 -76 16 -25 60 -43 88
-36 34 8 44 44 52 192 l7 122 36 -6 c67 -11 67 -11 80 -81 20 -107 63 -168
116 -161 50 6 69 46 73 158 3 69 1 100 -7 100 -7 0 -11 -29 -11 -84 0 -122
-23 -171 -69 -146 -34 18 -61 76 -75 161 -6 34 -5 37 24 42 42 9 38 27 -4 20
l-34 -5 -7 48 c-14 99 -48 207 -75 237 -17 19 -29 26 -34 19z m52 -99 c15 -52
35 -183 28 -190 -3 -3 -22 -1 -43 4 l-38 9 2 67 c3 73 19 147 32 147 4 0 13
-17 19 -37z"/>
<path d="M2834 5505 c-28 -28 -94 -160 -94 -187 0 -38 -18 -16 -25 30 -8 60
-22 113 -35 132 -8 13 -12 12 -24 -6 -18 -25 -48 -35 -67 -24 -10 7 -10 11 0
24 11 13 11 16 -2 16 -23 0 -30 -31 -11 -51 10 -11 31 -19 48 -19 l31 0 28
-118 c19 -80 28 -143 27 -199 0 -97 15 -174 40 -205 18 -22 18 -23 39 -4 32
29 28 109 -11 234 l-32 103 18 74 c20 86 54 159 77 163 40 7 64 -134 56 -328
-4 -80 -10 -161 -13 -179 -5 -26 -4 -33 6 -29 20 6 27 40 39 191 12 141 23
190 61 270 25 52 47 69 61 46 15 -24 10 -84 -16 -191 -44 -182 -30 -253 50
-250 70 3 109 59 118 170 5 66 -10 79 -18 15 -14 -104 -40 -153 -80 -153 -54
0 -62 63 -26 210 12 47 21 113 21 147 0 55 -3 64 -24 78 -42 28 -90 -5 -121
-83 -10 -24 -19 -41 -22 -38 -2 2 -9 37 -15 77 -15 114 -35 133 -84 84z m-79
-445 c20 -68 25 -133 10 -138 -14 -5 -32 52 -40 131 -9 84 5 88 30 7z"/>
<path d="M346 5485 c-13 -14 -27 -41 -30 -60 l-7 -35 -70 0 c-106 0 -163 -31
-144 -77 7 -16 9 -14 14 7 10 38 46 52 120 46 35 -3 65 -7 67 -9 6 -5 -35
-290 -47 -326 -6 -20 -22 -51 -36 -68 -32 -43 -84 -46 -110 -7 -16 25 -16 27
2 40 21 15 14 30 -10 21 -24 -10 -19 -64 10 -92 53 -54 143 -16 190 79 22 45
28 75 36 188 5 73 12 142 15 152 4 11 22 34 40 52 36 33 45 79 22 102 -18 18
-37 14 -62 -13z m54 -24 c0 -11 -9 -29 -20 -42 l-19 -24 -1 28 c0 34 17 70 31
62 5 -4 9 -14 9 -24z"/>
<path d="M3461 5481 c-22 -22 -26 -33 -14 -44 3 -4 11 3 17 15 17 34 44 34 57
1 8 -21 8 -68 -1 -183 -21 -255 -7 -329 64 -354 49 -18 95 15 153 110 12 21
12 22 32 -54 16 -58 42 -82 88 -82 29 0 43 8 75 40 23 25 38 35 38 25 0 -8 7
-15 15 -15 12 0 15 19 15 109 0 107 1 110 27 130 36 29 73 37 84 20 5 -8 9
-36 9 -64 2 -77 15 -145 33 -163 16 -15 19 -15 44 4 17 12 35 41 44 69 16 47
17 48 29 24 25 -49 52 -69 91 -69 46 0 76 24 94 75 8 25 15 34 18 25 3 -8 13
-38 22 -66 19 -60 38 -90 53 -80 6 3 25 49 42 102 l32 96 27 -25 c36 -34 67
-42 95 -23 23 14 24 14 36 -15 19 -44 69 -79 114 -79 78 0 127 59 143 170 8
51 10 55 40 61 l31 6 4 -108 c3 -120 15 -147 60 -136 29 8 71 78 88 150 7 26
16 47 21 47 9 0 103 -110 119 -140 10 -18 7 -20 -29 -20 -22 0 -46 -3 -55 -6
-24 -9 -19 -48 10 -78 50 -49 124 -25 124 41 0 15 9 27 24 35 14 6 31 24 39
41 l15 30 17 -37 c23 -47 50 -66 96 -66 29 0 43 7 63 30 l25 31 20 -38 c28
-56 56 -78 102 -78 51 0 74 25 92 95 l14 55 16 -30 c25 -49 52 -69 76 -56 11
7 24 23 27 37 4 14 10 22 15 17 14 -14 12 -65 -6 -138 -28 -115 -1 -206 47
-158 17 17 20 33 20 96 0 42 -3 95 -7 119 -6 40 -4 45 29 77 35 34 76 121 76
161 0 38 -15 20 -32 -38 -17 -57 -79 -144 -93 -130 -4 4 -12 47 -17 95 -6 48
-13 95 -18 103 -17 34 -25 4 -25 -95 0 -84 -3 -107 -17 -121 -16 -16 -18 -15
-37 17 -19 31 -51 147 -51 183 0 9 -7 16 -15 16 -12 0 -15 -17 -15 -96 0 -116
-14 -172 -47 -185 -72 -27 -116 63 -137 279 -5 48 -3 53 12 46 9 -4 31 -8 47
-8 26 -1 30 3 30 24 0 16 -6 26 -17 28 -21 4 -25 -24 -5 -31 7 -3 5 -6 -5 -6
-9 -1 -28 4 -42 11 -26 11 -33 31 -38 108 -2 23 -8 35 -18 35 -12 0 -15 -14
-15 -67 0 -40 -5 -72 -12 -79 -17 -17 -16 -32 1 -26 20 8 25 -13 28 -114 3
-93 -11 -132 -55 -148 -51 -19 -80 26 -103 161 -9 51 -17 95 -19 97 -2 2 -11
1 -19 -2 -11 -4 -13 -23 -9 -89 3 -57 0 -91 -9 -108 -20 -37 -45 -37 -60 -1
-16 37 -167 193 -182 188 -6 -2 -11 -29 -11 -63 0 -44 -7 -72 -26 -109 -27
-50 -52 -75 -65 -62 -4 4 -10 56 -12 116 -4 100 -3 112 16 136 12 14 18 33 15
41 -9 24 -40 16 -53 -15 -10 -26 -18 -31 -65 -36 -53 -7 -80 -30 -50 -41 30
-12 8 -132 -32 -176 -41 -45 -138 -5 -169 69 -21 49 -18 55 20 47 42 -7 103
11 116 36 16 30 12 50 -19 81 -72 72 -185 7 -168 -97 5 -29 2 -40 -18 -60 -20
-20 -28 -22 -48 -13 -13 6 -32 26 -40 45 -20 41 -35 43 -43 7 -10 -47 -35
-127 -49 -153 -12 -23 -14 -20 -40 65 -45 154 -56 185 -67 191 -22 14 -28 -13
-13 -57 36 -99 -23 -231 -88 -197 -30 15 -47 52 -62 134 -22 118 -24 124 -41
124 -14 0 -16 -11 -10 -82 4 -55 2 -100 -6 -132 -12 -46 -39 -78 -54 -64 -3 4
-10 47 -15 95 -12 114 -23 143 -58 143 -14 -1 -37 -7 -51 -15 -35 -20 -38 -19
-42 17 -2 21 -9 34 -19 36 -15 3 -17 -13 -20 -125 -4 -119 -6 -131 -32 -175
-56 -95 -90 -80 -134 60 -24 78 -25 87 -13 140 27 116 6 302 -32 290 -38 -13
-44 -116 -19 -312 6 -52 4 -65 -20 -115 -47 -99 -100 -126 -141 -71 -22 31
-25 96 -14 305 7 135 6 153 -11 185 -22 43 -61 52 -92 21z m320 -93 c4 -24 5
-68 1 -98 l-6 -55 -7 45 c-9 57 -11 165 -3 157 4 -3 10 -26 15 -49z m1111
-115 c22 -19 24 -56 4 -72 -8 -7 -34 -11 -58 -9 -38 3 -43 6 -46 30 -6 53 60
88 100 51z m506 -249 c26 -7 30 -45 6 -68 -20 -21 -26 -20 -58 5 -52 41 -19
82 52 63z m731 -174 c1 -54 -13 -83 -29 -60 -11 15 -5 115 8 148 8 22 19 -24
21 -88z"/>
<path d="M2301 5463 c-24 -30 -22 -43 17 -116 25 -47 25 -48 9 -95 -31 -86
-13 -160 42 -175 31 -8 76 21 100 63 22 39 23 39 47 24 36 -24 44 -6 10 21
-29 23 -30 36 -10 89 4 10 1 16 -9 16 -8 0 -17 -13 -20 -30 -4 -16 -10 -30
-15 -30 -5 0 -27 16 -50 36 l-42 36 0 78 c0 43 -3 85 -6 94 -10 25 -50 19 -73
-11z m48 -87 l0 -41 -21 41 c-13 26 -18 49 -14 60 7 18 8 18 22 0 8 -11 14
-38 13 -60z m112 -173 c17 -19 -21 -77 -52 -81 -50 -6 -75 54 -56 131 l8 28
45 -33 c25 -17 50 -38 55 -45z"/>
<path d="M4230 5405 c0 -18 5 -25 19 -25 24 0 33 13 25 34 -10 27 -44 20 -44
-9z"/>
<path d="M5504 5415 c-4 -9 -2 -21 4 -27 15 -15 44 -1 40 19 -4 23 -36 29 -44
8z"/>
<path d="M1044 5396 c-17 -8 -35 -22 -39 -32 -5 -11 -9 -82 -10 -159 0 -118
-3 -146 -19 -177 -11 -21 -28 -40 -38 -44 -23 -7 -84 37 -100 72 -10 21 -7 31
20 70 43 61 40 76 -6 31 -21 -20 -40 -37 -44 -37 -3 0 -22 36 -42 81 -20 44
-42 79 -47 77 -12 -4 -12 -6 -3 -52 7 -43 -19 -139 -46 -166 -43 -43 -130 -14
-161 53 -10 23 -19 47 -19 52 0 6 23 11 55 11 43 0 59 4 80 24 33 31 32 55 -4
91 -66 65 -171 20 -171 -73 0 -73 26 -142 67 -178 33 -29 41 -32 85 -28 60 6
92 34 116 100 9 26 19 48 23 48 3 0 14 -18 24 -39 17 -39 17 -40 -4 -70 -23
-32 -12 -53 15 -27 8 9 18 16 20 16 3 0 22 -18 43 -40 46 -48 94 -55 128 -17
23 25 53 105 53 142 0 29 3 30 35 9 21 -14 30 -14 56 -4 17 7 37 24 46 37 18
26 33 30 33 8 0 -9 7 -29 15 -45 21 -41 64 -41 98 0 14 16 28 39 32 50 3 11
10 20 15 20 10 0 103 -109 120 -140 10 -18 7 -20 -29 -20 -22 0 -46 -3 -55 -6
-24 -9 -19 -48 10 -78 50 -49 124 -25 124 41 0 15 9 27 24 35 34 15 56 76 55
151 l-1 62 -12 -75 c-19 -117 -51 -155 -78 -90 -18 40 -168 192 -185 186 -15
-6 -18 -32 -4 -41 26 -16 -38 -105 -76 -105 -27 0 -35 50 -22 130 15 98 16
114 4 119 -10 4 -19 -10 -30 -44 -5 -16 -9 -13 -25 22 -27 62 -64 76 -126 49z
m102 -47 c24 -27 25 -109 2 -161 -14 -32 -22 -38 -47 -38 -24 0 -34 7 -48 33
-24 45 -24 139 1 166 24 27 68 27 92 0z m-546 -91 c22 -40 5 -62 -49 -66 -50
-4 -74 12 -65 42 16 58 86 72 114 24z m868 -234 c26 -7 30 -45 6 -68 -18 -19
-19 -19 -47 -5 -69 37 -37 93 41 73z"/>
<path d="M40 4535 l0 -45 3140 0 3140 0 0 45 0 45 -3140 0 -3140 0 0 -45z"/>
<path d="M4005 4319 c-207 -10 -392 -28 -510 -48 l-100 -17 -3 -1057 -2 -1058
444 3 c244 2 447 6 451 9 3 4 6 65 6 135 0 119 -1 129 -18 125 -10 -2 -136 -6
-281 -8 l-262 -5 2 424 3 423 278 0 278 1 0 112 c0 61 -2 116 -6 122 -4 6
-112 10 -306 10 l-299 0 0 285 0 285 308 0 307 0 -2 125 c-1 69 -5 129 -8 135
-7 11 -54 11 -280 -1z"/>
<path d="M737 4299 c-341 -47 -569 -350 -491 -653 28 -108 131 -265 216 -326
86 -63 264 -100 478 -100 140 0 228 -13 252 -38 48 -48 65 -246 33 -396 -43
-205 -180 -347 -365 -377 -133 -22 -234 11 -427 137 -44 30 -83 54 -86 54 -13
0 -168 -214 -163 -225 6 -17 207 -137 309 -185 45 -21 105 -44 131 -50 65 -14
261 -14 331 0 232 48 437 229 524 463 30 81 61 266 61 361 0 102 -30 246 -64
315 -55 108 -143 174 -266 200 -30 7 -152 16 -270 21 -118 5 -232 14 -252 20
-44 13 -100 74 -134 145 -62 130 -1 272 145 338 40 18 64 21 176 20 73 -1 167
-9 215 -18 47 -9 103 -19 125 -22 l40 -5 30 124 c17 67 30 127 30 132 0 13
-40 23 -190 45 -165 25 -301 32 -388 20z"/>
<path d="M2735 4293 c-283 -37 -543 -168 -739 -373 -136 -142 -223 -298 -268
-477 -32 -126 -32 -370 0 -493 38 -146 88 -251 171 -364 168 -227 416 -390
701 -461 131 -33 379 -44 500 -23 l75 13 3 176 2 176 -67 -18 c-271 -76 -578
-23 -788 134 -218 163 -325 365 -325 610 0 222 73 384 244 544 95 89 192 148
314 189 177 61 372 66 555 15 l67 -18 0 177 0 178 -75 11 c-71 10 -302 13
-370 4z"/>
<path d="M5470 4284 c-299 -50 -602 -235 -779 -477 -254 -347 -264 -820 -26
-1182 154 -234 428 -424 716 -498 119 -30 133 -31 319 -31 128 -1 210 4 238
12 l42 13 0 175 c0 164 -1 176 -17 169 -10 -3 -43 -13 -73 -21 -213 -55 -436
-35 -629 57 -348 165 -527 499 -455 846 59 288 325 539 647 610 106 24 320 21
417 -5 41 -11 83 -23 93 -27 16 -7 17 5 17 172 l0 180 -82 11 c-110 16 -322
13 -428 -4z"/>
<path d="M40 1755 l0 -45 3140 0 3140 0 0 45 0 45 -3140 0 -3140 0 0 -45z"/>
<path d="M714 1633 c-9 -20 -23 -74 -32 -120 -14 -74 -17 -80 -29 -63 -8 11
-25 20 -38 20 -39 0 -48 -30 -39 -138 5 -54 10 -87 12 -75 3 19 6 21 22 11 15
-10 23 -9 38 5 25 23 29 22 36 -13 7 -38 41 -41 58 -5 15 32 20 31 38 -7 21
-45 49 -61 79 -45 14 7 27 19 29 27 4 13 3 13 -11 2 -27 -22 -60 -10 -79 28
-23 44 -24 123 -2 144 20 21 21 20 39 -8 13 -19 14 -29 5 -45 -8 -17 -8 -19 4
-15 37 14 21 90 -22 101 -35 8 -57 -22 -65 -88 -7 -56 -31 -103 -50 -96 -28 9
-24 85 9 189 18 57 33 112 33 123 0 11 -11 -18 -25 -65 -21 -71 -44 -122 -44
-98 0 17 31 166 41 195 11 35 29 45 29 16 0 -9 3 -14 6 -10 9 9 -6 67 -17 67
-6 0 -17 -17 -25 -37z m-61 -214 c35 -67 4 -160 -39 -117 -34 34 -26 167 9
156 7 -3 20 -20 30 -39z"/>
<path d="M5762 1657 c-14 -17 -52 -155 -52 -189 0 -31 -11 -36 -30 -13 -19 23
-53 14 -67 -16 -10 -19 -11 -50 -4 -115 4 -49 9 -73 10 -54 1 34 1 34 17 12
17 -25 42 -29 50 -7 9 23 21 18 33 -15 20 -58 53 -34 80 57 11 37 23 59 34 61
15 3 17 -7 17 -86 0 -129 29 -145 71 -39 l16 41 12 -37 c23 -67 71 -81 112
-31 13 16 15 12 20 -37 5 -48 6 -44 7 32 2 68 6 92 20 110 34 41 49 20 53 -70
5 -90 18 -116 47 -88 13 14 17 37 18 105 l2 87 -7 -82 c-3 -45 -11 -88 -18
-94 -17 -17 -21 -3 -26 94 -5 91 -15 107 -51 83 -25 -16 -26 -16 -26 8 0 14
-4 28 -10 31 -6 4 -10 -14 -11 -47 0 -29 -6 -71 -13 -93 -10 -35 -16 -40 -40
-40 -39 0 -64 37 -71 101 -5 42 -2 55 15 75 20 24 20 24 36 4 8 -11 13 -30 11
-43 -3 -14 0 -21 7 -19 19 6 18 52 -2 77 -14 18 -25 22 -45 17 -27 -7 -39 -33
-52 -111 -8 -49 -34 -116 -45 -116 -11 0 -24 122 -17 157 3 16 9 40 13 56 8
35 -13 37 -26 2 -7 -17 -17 -25 -34 -25 -29 0 -42 -16 -28 -33 15 -17 -18
-111 -40 -115 -13 -2 -18 7 -23 42 -6 37 -1 65 25 143 46 139 53 270 12 220z
m-2 -154 c-26 -92 -39 -120 -40 -83 0 34 25 148 41 185 l13 30 4 -27 c2 -15
-7 -62 -18 -105z m-85 -63 c21 -24 35 -98 24 -129 -12 -30 -47 -27 -59 5 -18
45 -11 144 10 144 4 0 15 -9 25 -20z"/>
<path d="M3292 1590 c-36 -22 -62 -72 -62 -121 0 -22 -8 -37 -26 -52 -29 -22
-54 -73 -54 -109 0 -117 111 -215 201 -177 40 16 88 82 95 131 4 21 10 41 15
43 14 9 22 -61 10 -84 -12 -21 2 -31 14 -11 4 6 16 -4 29 -22 12 -18 29 -34
38 -36 24 -5 48 37 55 97 6 49 15 62 28 41 9 -15 41 -12 55 5 17 20 27 12 34
-29 8 -40 49 -78 74 -69 25 9 42 24 42 36 0 7 -4 7 -12 -1 -20 -20 -56 -14
-73 12 -9 13 -18 51 -21 83 -4 49 -2 62 13 75 25 23 45 9 47 -31 1 -35 12 -41
21 -12 9 30 -12 70 -41 77 -35 9 -64 -24 -64 -71 0 -31 -25 -65 -48 -65 -21 0
-44 48 -44 93 -1 51 10 77 23 56 7 -11 9 -10 9 3 0 26 -15 30 -35 9 -14 -16
-17 -42 -18 -140 -2 -102 -5 -123 -20 -138 -18 -17 -19 -17 -43 12 -28 35 -30
55 -8 96 8 17 14 33 11 35 -2 2 -10 -7 -17 -21 -7 -14 -17 -25 -21 -25 -4 0
-16 27 -25 60 -9 33 -20 62 -23 64 -4 3 -7 -28 -7 -68 0 -60 -4 -79 -27 -119
-61 -104 -167 -96 -218 17 -23 50 -24 85 -4 131 15 36 46 58 53 37 2 -6 12
-22 23 -34 18 -22 20 -22 33 -5 20 25 9 54 -25 66 -25 9 -29 15 -29 46 0 45
45 95 84 95 33 0 68 -35 64 -63 -2 -17 -10 -22 -30 -22 -31 1 -37 -9 -12 -19
18 -7 40 7 55 35 14 27 -14 87 -46 99 -35 13 -35 13 -73 -10z m-4 -192 c7 -7
12 -19 12 -27 0 -11 -4 -10 -20 4 -21 19 -26 35 -12 35 4 0 13 -5 20 -12z"/>
<path d="M84 1575 c-22 -34 -29 -104 -15 -148 7 -19 36 -67 66 -107 l55 -72
-20 -25 c-11 -14 -20 -31 -20 -37 0 -6 6 -2 12 9 27 48 48 40 48 -19 0 -50
-21 -76 -44 -56 -8 6 -17 21 -19 33 -3 15 -5 12 -6 -10 -1 -41 23 -67 49 -53
30 16 42 47 39 101 -3 47 -1 51 30 70 18 11 34 19 36 17 1 -2 8 -24 15 -50 13
-49 42 -88 65 -88 17 0 45 38 45 62 0 14 6 16 35 11 26 -4 36 -2 41 11 8 20
24 21 24 2 0 -20 25 -37 44 -30 9 3 16 13 16 22 0 12 -3 13 -12 4 -7 -7 -15
-12 -20 -12 -13 0 -28 73 -28 138 0 34 -4 62 -10 62 -6 0 -10 -35 -10 -84 0
-61 -4 -87 -15 -96 -8 -6 -19 -9 -24 -5 -14 8 -31 72 -31 117 0 20 -5 40 -12
44 -8 5 -10 -14 -5 -75 6 -99 -5 -151 -34 -151 -25 0 -46 46 -54 121 -3 30 -8
73 -11 96 l-5 43 30 -6 c24 -5 31 -3 31 9 0 9 -4 19 -10 22 -5 3 -10 -1 -10
-10 0 -12 -4 -14 -19 -6 -13 7 -21 27 -26 61 -4 27 -11 50 -15 50 -11 0 -18
-123 -7 -131 4 -3 7 -32 5 -63 -3 -51 -6 -59 -33 -76 l-30 -19 -50 61 c-76 93
-95 128 -95 173 0 70 54 114 80 66 15 -30 12 -97 -5 -111 -13 -11 -18 -10 -30
6 -8 10 -15 14 -15 8 0 -21 30 -39 48 -28 39 25 40 111 1 152 -26 29 -55 28
-75 -3z"/>
<path d="M1436 1563 c-14 -20 -31 -61 -37 -90 -13 -55 -30 -68 -49 -34 -18 35
-12 88 12 105 12 9 19 18 16 22 -4 3 -16 -4 -27 -15 -35 -35 -25 -113 19 -151
11 -10 21 -43 29 -95 20 -140 71 -207 129 -174 15 8 38 31 51 52 22 34 26 36
41 22 22 -20 47 -10 65 25 11 22 19 26 44 22 20 -3 31 0 31 7 0 7 -4 10 -9 7
-25 -16 -36 6 -36 68 0 71 -7 86 -33 70 -23 -15 -27 -56 -8 -93 26 -49 -11
-106 -42 -68 -21 25 -26 119 -8 161 20 49 13 59 -10 15 -10 -21 -18 -62 -20
-110 -2 -82 -19 -127 -56 -153 -63 -44 -109 19 -124 170 l-6 61 34 7 c76 14
125 123 82 184 -24 34 -59 28 -88 -15z m82 5 c26 -26 7 -102 -34 -140 -11 -9
-32 -20 -47 -23 -28 -7 -28 -7 -21 31 9 54 29 99 53 123 24 24 32 26 49 9z
m176 -194 c9 -23 7 -64 -3 -64 -9 0 -21 34 -21 63 0 21 16 22 24 1z"/>
<path d="M5116 1563 c-14 -20 -31 -61 -37 -90 -13 -55 -30 -68 -49 -34 -18 35
-12 88 12 105 12 9 19 18 16 22 -4 3 -16 -4 -27 -15 -35 -35 -26 -112 18 -151
12 -10 21 -43 29 -97 12 -85 29 -130 63 -164 29 -29 58 -23 101 21 21 23 38
36 38 30 0 -5 4 -10 8 -10 4 0 6 32 4 71 -7 119 40 120 53 0 7 -65 16 -85 39
-89 11 -2 21 8 31 30 8 18 14 28 15 21 0 -21 37 -35 60 -23 17 9 20 7 26 -17
10 -47 13 -53 29 -59 19 -8 55 23 54 45 0 10 -3 8 -9 -6 -12 -30 -28 -29 -40
3 -15 38 -12 219 5 307 19 100 19 127 0 127 -27 0 -36 -40 -42 -193 -6 -166
-14 -200 -40 -195 -26 5 -41 43 -48 125 -4 40 -11 73 -16 73 -5 0 -9 -49 -9
-109 0 -63 -4 -112 -10 -116 -14 -9 -30 38 -30 88 0 55 -20 93 -47 90 -24 -3
-33 33 -33 137 0 48 3 61 11 50 8 -12 10 -11 7 5 -2 11 -10 20 -18 20 -13 0
-15 -27 -15 -177 0 -163 -2 -178 -21 -205 -28 -37 -67 -51 -90 -32 -29 23 -53
92 -60 167 -6 66 -5 72 12 72 33 0 85 39 100 75 43 104 -31 185 -90 98z m84
-2 c24 -45 0 -109 -53 -141 -37 -23 -57 -25 -57 -7 0 34 34 122 55 143 29 29
41 30 55 5z m353 -33 c-8 -46 -13 -48 -13 -5 0 21 4 37 10 37 5 0 7 -14 3 -32z"/>
<path d="M2311 1553 c-5 -21 -12 -104 -16 -185 -5 -107 -11 -150 -21 -159 -33
-28 -50 9 -69 154 -7 51 -25 55 -25 6 0 -69 -47 -93 -75 -39 -15 30 -20 86 -9
114 5 13 9 14 20 5 8 -7 14 -7 14 -1 0 5 -6 15 -14 21 -11 10 -17 7 -30 -11
-12 -17 -16 -47 -16 -125 0 -163 -32 -211 -43 -63 -6 96 -18 118 -53 95 -23
-15 -24 -14 -24 9 0 14 -4 28 -10 31 -6 4 -10 -28 -10 -89 0 -93 -9 -121 -32
-98 -6 6 -15 52 -22 104 l-11 93 -5 -87 c-3 -49 -11 -93 -18 -100 -21 -21 -42
13 -56 91 -13 81 -26 84 -26 7 0 -64 29 -116 64 -116 13 0 27 7 30 16 5 14 10
12 27 -10 11 -14 27 -26 35 -26 8 0 15 -11 15 -27 1 -16 6 14 10 66 9 98 23
129 53 118 12 -5 16 -22 16 -74 0 -37 3 -78 6 -90 16 -58 64 8 64 87 l0 40 26
-17 c25 -16 29 -16 54 -1 l28 16 12 -48 c15 -62 43 -89 72 -71 24 15 23 16 35
-34 6 -29 14 -41 30 -43 24 -4 53 32 52 63 0 13 -4 9 -10 -12 -11 -38 -34 -43
-46 -10 -13 37 -6 248 12 332 9 43 14 84 11 92 -10 26 -35 13 -45 -24z m26
-40 c-3 -10 -5 -2 -5 17 0 19 2 27 5 18 2 -10 2 -26 0 -35z"/>
<path d="M4771 1572 c-5 -10 -13 -73 -17 -140 -7 -122 -19 -162 -44 -147 -10
6 -11 30 -7 102 4 60 3 92 -3 88 -6 -3 -10 -14 -10 -23 -1 -9 -7 -3 -14 14
-17 38 -30 47 -56 39 -32 -10 -38 -32 -45 -165 -7 -121 -17 -166 -34 -155 -5
2 -10 43 -13 90 -5 99 -14 115 -52 90 -26 -17 -26 -17 -26 8 0 14 -4 29 -10
32 -6 4 -10 -18 -10 -58 0 -46 -4 -68 -15 -77 -24 -20 -34 -2 -37 70 -3 57 -5
65 -23 65 -25 0 -32 -44 -15 -96 21 -62 -27 -113 -50 -53 -16 41 -12 136 6
162 21 30 13 38 -11 12 -14 -15 -20 -44 -25 -110 -6 -87 -19 -120 -46 -120
-19 0 -33 40 -44 123 -8 64 -15 86 -24 76 -2 -2 0 -47 4 -99 4 -52 8 -89 8
-81 1 8 10 4 23 -13 25 -32 42 -33 66 -2 19 23 20 23 31 5 7 -10 19 -19 26
-19 13 0 50 38 58 59 2 5 17 6 35 4 31 -5 32 -7 36 -62 2 -43 4 -36 5 30 2 67
6 92 20 110 34 41 49 20 53 -70 5 -90 18 -116 46 -88 11 11 18 38 21 82 4 63
14 81 26 50 8 -22 43 -18 60 7 17 25 18 24 32 -17 7 -22 16 -29 31 -28 18 2
21 -5 27 -58 7 -67 20 -99 41 -99 16 0 45 27 45 43 0 6 -6 2 -14 -9 -12 -15
-17 -17 -28 -6 -20 20 -23 211 -4 311 20 105 21 141 1 141 -8 0 -19 -8 -24
-18z m28 -24 c-1 -7 -5 -24 -9 -38 -7 -22 -8 -21 -9 13 -1 20 4 37 9 37 6 0
10 -6 9 -12z m-140 -82 c26 -32 7 -173 -22 -164 -47 16 -50 178 -3 178 8 0 19
-6 25 -14z m-299 -129 c0 -31 -3 -38 -10 -27 -13 20 -13 83 0 75 6 -3 10 -25
10 -48z"/>
<path d="M2606 1541 c-13 -14 -19 -43 -23 -98 -6 -92 14 -403 28 -441 18 -46
49 -52 49 -9 0 17 -2 19 -10 7 -7 -11 -11 -9 -19 13 -14 35 -14 77 -1 77 5 0
14 -15 19 -32 6 -22 10 -26 10 -13 1 11 -6 31 -15 43 -15 22 -15 25 4 45 11
12 24 34 27 49 6 23 10 26 25 18 25 -13 43 -5 63 29 13 22 22 27 41 24 29 -6
43 16 54 80 5 25 14 43 23 45 12 2 15 -11 15 -82 0 -100 16 -133 46 -96 21 26
48 113 47 149 -1 19 -3 15 -10 -14 -13 -59 -39 -125 -50 -125 -5 0 -11 11 -15
24 -7 29 0 163 11 194 5 15 3 22 -5 22 -6 0 -14 -9 -17 -21 -4 -12 -17 -22
-35 -26 -33 -7 -46 -22 -28 -33 16 -10 7 -78 -14 -98 -24 -24 -35 -5 -33 56 1
61 -6 82 -28 82 -18 0 -29 -42 -21 -75 3 -14 9 -36 12 -50 7 -27 -10 -55 -31
-55 -33 0 -47 132 -20 184 20 38 12 45 -12 10 -14 -22 -18 -50 -19 -129 -2
-111 -14 -158 -42 -153 -15 3 -18 19 -22 118 -5 96 -3 122 12 157 20 46 26
119 11 134 -6 6 -15 3 -27 -10z m24 -38 c0 -38 -10 -73 -21 -73 -10 0 -12 60
-3 84 10 25 24 18 24 -11z m148 -166 c-6 -34 -23 -22 -26 18 -2 38 -1 39 13
20 9 -11 14 -28 13 -38z"/>
<path d="M1038 1478 c-2 -35 0 -67 4 -72 4 -6 8 -45 8 -88 0 -43 4 -78 8 -78
5 0 14 -18 21 -40 8 -27 21 -45 38 -53 22 -10 28 -8 44 12 11 13 19 35 18 50
-1 28 -3 23 -13 -21 -9 -41 -43 -37 -61 6 -11 27 -34 172 -35 219 0 4 11 5 24
1 26 -6 42 9 30 28 -5 8 -9 7 -13 -5 -12 -32 -42 4 -48 56 -8 66 -21 58 -25
-15z"/>
<path d="M4020 1493 c0 -27 -4 -55 -10 -63 -5 -9 -5 -17 0 -20 16 -10 24 -153
11 -178 -22 -41 -38 -27 -33 31 3 39 0 56 -11 65 -13 11 -20 8 -44 -15 -16
-15 -21 -22 -11 -14 28 22 48 7 48 -37 0 -42 -14 -62 -43 -62 -13 0 -18 -6
-15 -22 4 -30 23 -33 47 -9 12 12 25 21 31 21 5 0 18 10 29 22 l20 21 11 -29
c15 -39 39 -64 61 -64 19 0 40 28 38 52 0 7 -4 3 -9 -9 -5 -13 -18 -23 -29
-23 -28 0 -50 65 -58 169 l-6 89 27 -5 c21 -4 26 -2 26 16 0 25 -17 28 -22 4
-3 -15 -4 -15 -20 1 -12 11 -18 33 -18 62 0 24 -4 44 -10 44 -5 0 -10 -21 -10
-47z m-75 -313 c-3 -5 -10 -10 -16 -10 -5 0 -9 5 -9 10 0 6 7 10 16 10 8 0 12
-4 9 -10z"/>
<path d="M2182 1504 c4 -21 22 -23 26 -1 2 10 -3 17 -13 17 -10 0 -15 -6 -13
-16z"/>
<path d="M4142 1504 c4 -21 22 -23 26 -1 2 10 -3 17 -13 17 -10 0 -15 -6 -13
-16z"/>
<path d="M5400 1505 c0 -8 5 -15 10 -15 6 0 10 7 10 15 0 8 -4 15 -10 15 -5 0
-10 -7 -10 -15z"/>
<path d="M909 1405 c-15 -23 -14 -269 1 -260 5 3 9 42 8 85 -1 65 2 83 17 100
38 42 55 18 55 -82 0 -65 7 -88 26 -88 16 0 34 31 34 57 -1 12 -5 8 -14 -12
-16 -39 -23 -25 -31 70 -9 96 -18 112 -51 90 -31 -20 -32 -20 -36 18 -2 17 -6
28 -9 22z"/>
<path d="M3857 1383 c-4 -7 -8 -56 -9 -110 0 -54 -6 -123 -14 -153 -26 -101
-12 -164 22 -99 10 20 18 66 20 121 3 50 5 93 6 96 1 4 -2 14 -5 22 -4 8 -8
42 -9 75 -2 34 -6 55 -11 48z m-16 -353 l-10 -25 0 26 c-1 15 2 42 7 60 l7 34
3 -35 c2 -20 -1 -47 -7 -60z"/>
<path d="M1183 1305 c0 -38 2 -53 4 -32 2 20 2 52 0 70 -2 17 -4 1 -4 -38z"/>
<path d="M4852 1319 c-1 -31 -4 -78 -7 -105 l-4 -49 10 49 c5 27 8 74 6 105
l-3 56 -2 -56z"/>
<path d="M2393 1280 c0 -47 2 -66 4 -42 2 23 2 61 0 85 -2 23 -4 4 -4 -43z"/>
<path d="M5602 1205 c0 -16 2 -22 5 -12 2 9 2 23 0 30 -3 6 -5 -1 -5 -18z"/>
</g>
</svg>
